<svg width="1320" height="954" viewBox="0 0 1320 954" fill="none" xmlns="http://www.w3.org/2000/svg">
<path d="M798.527 657.052C662.682 890.671 390.772 993.968 191.2 887.773C-8.37247 781.578 -60.0328 506.105 75.8131 272.486C211.659 38.8679 483.569 -64.4293 683.141 41.7656C882.713 147.961 934.373 423.434 798.527 657.052Z" fill="#3500AF"/>
<path d="M1150.04 656.931C1075.81 875.388 849.581 1000.85 644.74 937.155C439.899 873.461 334.018 644.732 408.248 426.275C482.479 207.817 708.711 82.3566 913.552 146.051C1118.39 209.744 1224.27 438.473 1150.04 656.931Z" fill="#5E19FF"/>
<path d="M1319.84 514.983C1319.84 684.258 1167.62 821.483 979.842 821.483C792.065 821.483 639.842 684.258 639.842 514.983C639.842 345.707 792.065 208.483 979.842 208.483C1167.62 208.483 1319.84 345.707 1319.84 514.983Z" fill="#9F88D7"/>
</svg>
