<svg viewBox="0 0 20 20" fill="none" xmlns="http://www.w3.org/2000/svg">
<path d="M1.52844 4.7084C1.81996 4.52356 2.20613 4.61005 2.39097 4.90156C2.5758 5.19308 2.48932 5.57925 2.1978 5.76409L1.58467 6.15283C1.57838 6.15682 1.57203 6.16069 1.5656 6.16445C1.47266 6.21883 1.39763 6.26564 1.33733 6.30708C1.29992 6.33279 1.27141 6.35425 1.25 6.3717V18.75H18.75V6.33938C18.7352 6.33073 18.7171 6.32051 18.6951 6.30842C18.6366 6.27629 18.5317 6.22126 18.435 6.16479V6.16477L17.8094 5.79985C17.5113 5.62591 17.4106 5.24319 17.5845 4.94504C17.7585 4.6469 18.1412 4.54622 18.4393 4.72017L19.065 5.08516L19.065 5.08521C19.1439 5.13124 19.205 5.16238 19.2966 5.21265C19.375 5.25571 19.4798 5.31503 19.5781 5.3915C19.6813 5.47187 19.7949 5.58407 19.879 5.74268C19.9647 5.90443 20 6.07712 20 6.25V18.75C20 19.4408 19.4408 20 18.75 20H1.25C0.559197 20 0 19.4408 0 18.75V6.25C0 5.8986 0.194057 5.64786 0.357153 5.49316C0.5163 5.34222 0.721774 5.21032 0.924146 5.09155L1.52844 4.7084ZM5.49556 13.6206C5.73963 13.3765 6.13537 13.3765 6.37944 13.6206C6.62352 13.8646 6.62352 14.2604 6.37944 14.5044L2.94194 17.9419C2.69787 18.186 2.30213 18.186 2.05806 17.9419C1.81398 17.6979 1.81398 17.3021 2.05806 17.0581L5.49556 13.6206ZM13.6206 13.6206C13.8646 13.3765 14.2604 13.3765 14.5044 13.6206L17.9419 17.0581C18.186 17.3021 18.186 17.6979 17.9419 17.9419C17.6979 18.186 17.3021 18.186 17.0581 17.9419L13.6206 14.5044C13.3765 14.2604 13.3765 13.8646 13.6206 13.6206ZM15.625 0C16.3158 0 16.875 0.559197 16.875 1.25V7.24111L17.0581 7.05806C17.3021 6.81398 17.6979 6.81398 17.9419 7.05806C18.186 7.30213 18.186 7.69787 17.9419 7.94194L11.0669 14.8169C10.9281 14.9558 10.78 15.0912 10.6224 15.193C10.4587 15.2987 10.2503 15.3906 10.0005 15.3907C9.75065 15.3908 9.54214 15.2991 9.37825 15.1934C9.22041 15.0916 9.07214 14.956 8.93306 14.8169L2.05806 7.94194C1.81398 7.69787 1.81398 7.30213 2.05806 7.05806C2.30213 6.81398 2.69787 6.81398 2.94194 7.05806L3.125 7.24111V1.25C3.125 0.559197 3.6842 0 4.375 0H15.625ZM4.375 8.49111L9.81694 13.9331C9.89718 14.0133 9.95637 14.0666 10 14.1018C10.0436 14.0666 10.1028 14.0133 10.1831 13.9331L15.625 8.49111V1.25H4.375V8.49111ZM13.125 6.875C13.4702 6.875 13.75 7.15482 13.75 7.5C13.75 7.84518 13.4702 8.125 13.125 8.125H6.875C6.52982 8.125 6.25 7.84518 6.25 7.5C6.25 7.15482 6.52982 6.875 6.875 6.875H13.125ZM13.125 4.375C13.4702 4.375 13.75 4.65482 13.75 5C13.75 5.34518 13.4702 5.625 13.125 5.625H6.875C6.52982 5.625 6.25 5.34518 6.25 5C6.25 4.65482 6.52982 4.375 6.875 4.375H13.125Z"/>
</svg>
