<svg viewBox="0 0 12 12" fill="none" xmlns="http://www.w3.org/2000/svg">
<path d="M11.8451 0.15141C12.0469 0.353276 12.0468 0.6806 11.8451 0.882484L6.73086 5.99821L11.8486 11.1175C12.0505 11.3194 12.0505 11.6467 11.8486 11.8486C11.6468 12.0505 11.3196 12.0505 11.1178 11.8486L6 6.72929L0.882222 11.8486C0.680401 12.0505 0.353186 12.0505 0.151365 11.8486C-0.0504551 11.6467 -0.0504551 11.3194 0.151365 11.1175L5.26914 5.99821L0.154934 0.882484C-0.0468865 0.680604 -0.0468865 0.353291 0.154934 0.15141C0.356754 -0.0504701 0.68397 -0.0504701 0.88579 0.15141L6 5.26714L11.1142 0.15141C11.316 -0.0504253 11.6433 -0.0504552 11.8451 0.15141Z" fill="#FAFAFA"/>
</svg>
