<svg viewBox="0 0 20 20" fill="none" xmlns="http://www.w3.org/2000/svg">
<path d="M2.2222 14.4444V17.7778H6.66667V14.4444H2.2222ZM13.3333 11.1111V17.7778H17.7778V11.1111H13.3333ZM2.2222 2.2222V7.77777H6.66667V2.2222H2.2222ZM13.3333 2.2222V4.44443H17.7778V2.2222H13.3333ZM8.88887 17.7778C8.88887 18.3671 8.65474 18.9324 8.23799 19.3491C7.82124 19.7659 7.25603 20 6.66667 20H2.2222C1.63284 20 1.06762 19.7659 0.650879 19.3491C0.234131 18.9324 2.69403e-07 18.3671 0 17.7778V14.4444C0 13.8551 0.234132 13.2898 0.650879 12.8731C1.06762 12.4563 1.63284 12.2222 2.2222 12.2222H6.66667C7.25603 12.2222 7.82125 12.4563 8.23799 12.8731C8.65474 13.2898 8.88887 13.8551 8.88887 14.4444V17.7778ZM20 17.7778C20 18.3671 19.7659 18.9324 19.3491 19.3491C18.9324 19.7659 18.3671 20 17.7778 20H13.3333C12.744 20 12.1787 19.7659 11.762 19.3491C11.3452 18.9324 11.1111 18.3671 11.1111 17.7778V11.1111C11.1111 10.5217 11.3452 9.95649 11.762 9.53975C12.1787 9.123 12.744 8.88887 13.3333 8.88887H17.7778C18.3671 8.88887 18.9324 9.123 19.3491 9.53975C19.7659 9.9565 20 10.5217 20 11.1111V17.7778ZM8.88887 7.77777C8.88887 8.36714 8.65474 8.93237 8.23799 9.34912C7.82125 9.76586 7.25603 10 6.66667 10H2.2222C1.63284 10 1.06762 9.76586 0.650879 9.34912C0.234132 8.93237 0 8.36714 0 7.77777V2.2222C2.86256e-06 1.63283 0.234134 1.06762 0.650879 0.650879C1.06762 0.234134 1.63283 2.8624e-06 2.2222 0H6.66667C7.25603 2.96359e-06 7.82124 0.234135 8.23799 0.650879C8.65473 1.06762 8.88886 1.63283 8.88887 2.2222V7.77777ZM20 4.44443C20 5.0338 19.7659 5.59904 19.3491 6.01579C18.9324 6.43254 18.3671 6.66667 17.7778 6.66667H13.3333C12.744 6.66667 12.1787 6.43253 11.762 6.01579C11.3452 5.59904 11.1111 5.0338 11.1111 4.44443V2.2222C11.1111 1.63284 11.3452 1.06762 11.762 0.650879C12.1787 0.234132 12.744 0 13.3333 0H17.7778C18.3671 2.69418e-07 18.9324 0.234131 19.3491 0.650879C19.7659 1.06762 20 1.63284 20 2.2222V4.44443Z"/>
</svg>
