<svg viewBox="0 0 19 20" fill="none" xmlns="http://www.w3.org/2000/svg">
<path fill-rule="evenodd" clip-rule="evenodd" d="M15.454 0C16.9602 0 18.1815 1.22131 18.1815 2.72754V17.2725C18.1815 18.7787 16.9602 20 15.454 20H8.18149C7.67943 20 7.27231 19.5929 7.27231 19.0908C7.27235 18.5888 7.67946 18.1817 8.18149 18.1816H15.454C15.956 18.1816 16.3631 17.7746 16.3631 17.2725V2.72754C16.3631 2.22547 15.956 1.81836 15.454 1.81836H8.18149C7.67946 1.81833 7.27236 1.4112 7.27231 0.90918C7.27231 0.407127 7.67943 3.23721e-05 8.18149 0H15.454ZM4.24106 4.42773C5.34343 3.15632 7.43247 3.93619 7.43247 5.61914V7.27246H12.8875C13.8916 7.27256 14.7059 8.08678 14.7059 9.09082V10.9092C14.7059 11.9133 13.8916 12.7274 12.8875 12.7275H7.43247V14.3809C7.43247 16.0638 5.34344 16.8437 4.24106 15.5723L0.444185 11.1904C-0.148051 10.507 -0.148073 9.49293 0.444185 8.80957L4.24106 4.42773ZM2.33383 9.4043C2.0377 9.74593 2.0377 10.2541 2.33383 10.5957L5.61508 14.3809V12.2725C5.61522 11.5195 6.22534 10.9092 6.97836 10.9092H12.8875V9.09082H6.97836C6.22534 9.09082 5.61522 8.4805 5.61508 7.72754V5.61914L2.33383 9.4043Z"/>
</svg>
