<svg viewBox="0 0 20 20" fill="none" xmlns="http://www.w3.org/2000/svg">
<path d="M11.2725 0C14.3273 0 15.8557 0.000217191 17.0225 0.594727C18.0486 1.11769 18.8834 1.95232 19.4062 2.97852C20.0006 4.14525 20 5.67308 20 8.72754V11.2725C20 14.327 20.0006 15.8548 19.4062 17.0215C18.8834 18.0477 18.0486 18.8824 17.0225 19.4053C15.8557 19.9998 14.3273 20 11.2725 20H8.72754C5.67275 20 4.14531 19.9998 2.97852 19.4053C1.95215 18.8824 1.11768 18.0478 0.594727 17.0215C0.000260135 15.8548 0 14.3272 0 11.2725V8.72754C0 5.67285 0.000288151 4.14529 0.594727 2.97852C1.11768 1.95217 1.95215 1.11767 2.97852 0.594727C4.14532 0.000257112 5.67273 0 8.72754 0H11.2725ZM8.72754 1.81836C7.17013 1.81836 6.11131 1.81987 5.29297 1.88672C4.49583 1.95185 4.08808 2.06995 3.80371 2.21484C3.11957 2.56347 2.56346 3.11957 2.21484 3.80371C2.06995 4.08807 1.95185 4.49584 1.88672 5.29297C1.81988 6.11128 1.81836 7.17023 1.81836 8.72754V11.2725C1.81836 12.8298 1.81987 13.8887 1.88672 14.707C1.95185 15.5042 2.06995 15.9119 2.21484 16.1963C2.56346 16.8804 3.11956 17.4365 3.80371 17.7852C4.08808 17.9301 4.49583 18.0482 5.29297 18.1133C6.11131 18.1801 7.17013 18.1816 8.72754 18.1816H11.2725C12.8297 18.1816 13.8887 18.1801 14.707 18.1133C15.5041 18.0482 15.9119 17.93 16.1963 17.7852C16.8805 17.4365 17.4375 16.8805 17.7861 16.1963C17.931 15.9119 18.0492 15.504 18.1143 14.707C18.1811 13.8887 18.1816 12.8298 18.1816 11.2725V8.72754C18.1816 7.17026 18.1811 6.11128 18.1143 5.29297C18.0492 4.49603 17.931 4.08807 17.7861 3.80371C17.4375 3.11948 16.8805 2.56348 16.1963 2.21484C15.9119 2.06998 15.5041 1.95184 14.707 1.88672C13.8887 1.81989 12.8297 1.81836 11.2725 1.81836H8.72754ZM10 4.54492C13.0124 4.54501 15.4541 6.98759 15.4541 10C15.454 13.0123 13.0123 15.454 10 15.4541C6.98757 15.4541 4.54506 13.0123 4.54492 10C4.54492 6.98754 6.98749 4.54492 10 4.54492ZM10 6.36328C7.99166 6.36328 6.36328 7.99169 6.36328 10C6.36342 12.0082 7.99174 13.6357 10 13.6357C12.0081 13.6357 13.6366 12.0081 13.6367 10C13.6367 7.99174 12.0082 6.36337 10 6.36328ZM15.4541 3.63574C15.9562 3.63574 16.3633 4.04285 16.3633 4.54492C16.3632 5.04689 15.9561 5.4541 15.4541 5.4541C14.9522 5.45398 14.545 5.04682 14.5449 4.54492C14.5449 4.04292 14.9521 3.63586 15.4541 3.63574Z"/>
</svg>
