<svg viewBox="0 0 20 20" fill="none" xmlns="http://www.w3.org/2000/svg">
<path d="M18.3996 0.00179364H1.71246C1.49738 -0.00828044 1.28241 0.0241544 1.07988 0.0972602C0.877343 0.170366 0.691222 0.282693 0.532151 0.427804C0.373092 0.572929 0.244207 0.748 0.152897 0.942982C0.0615863 1.13798 0.00962478 1.34906 0 1.56415V18.2877C0.0125997 18.7377 0.19707 19.1661 0.515525 19.4844C0.833981 19.8029 1.26227 19.9874 1.71246 20H18.3996C18.8372 19.9805 19.2498 19.7903 19.5489 19.4702C19.848 19.1501 20.0098 18.7256 19.9995 18.2877V1.56415C20.0032 1.35479 19.9639 1.14693 19.8843 0.953269C19.8047 0.759624 19.6863 0.584278 19.5364 0.437979C19.3867 0.291692 19.2086 0.177553 19.0131 0.102547C18.8176 0.0275416 18.6088 -0.00674308 18.3996 0.00179364ZM6.24986 16.6753H3.33742V7.76362H6.24986V16.6753ZM4.86239 6.41371C4.65916 6.42079 4.45665 6.38577 4.2676 6.31085C4.07854 6.23594 3.90702 6.12273 3.76383 5.97836C3.62062 5.83398 3.50881 5.66156 3.43543 5.47192C3.36205 5.28227 3.32869 5.0795 3.33742 4.87635C3.32844 4.67099 3.36247 4.46603 3.43736 4.27461C3.51224 4.08318 3.62632 3.90952 3.77225 3.76477C3.9182 3.62001 4.09278 3.50736 4.28481 3.43404C4.47686 3.36071 4.6821 3.32834 4.88739 3.33899C5.09062 3.33191 5.29313 3.36692 5.48217 3.44184C5.67123 3.51676 5.84275 3.62996 5.98595 3.77434C6.12916 3.91871 6.24097 4.09113 6.31434 4.28078C6.38773 4.47042 6.42109 4.67319 6.41235 4.87635C6.42134 5.0817 6.3873 5.28666 6.31242 5.47808C6.23753 5.66951 6.12346 5.84317 5.97753 5.98792C5.83158 6.13268 5.657 6.24533 5.46496 6.31865C5.27292 6.39198 5.06767 6.42436 4.86239 6.41371ZM16.6746 16.6753H13.7497V11.8007C13.7497 10.6384 13.3372 9.83843 12.2997 9.83843C11.9775 9.84118 11.6639 9.94355 11.4021 10.1315C11.1402 10.3195 10.943 10.5839 10.8373 10.8883C10.756 11.1166 10.722 11.3589 10.7373 11.6008V16.6753H7.86232V7.76362H10.7373V9.01351C10.9929 8.54392 11.3732 8.15421 11.8365 7.88723C12.2997 7.62038 12.8277 7.48675 13.3622 7.50111C15.2496 7.50111 16.6746 8.75103 16.6746 11.4133V16.6753Z" fill="#FAFAFA"/>
</svg>
