<svg viewBox="0 0 144 28" fill="none" xmlns="http://www.w3.org/2000/svg">
<path d="M118.489 23.7106C118.787 23.7504 119.095 23.7802 119.412 23.8C119.73 23.8397 120.058 23.8596 120.395 23.8596C121.15 23.8596 121.775 23.7106 122.272 23.4128C122.788 23.1348 123.195 22.539 123.493 21.6255L123.94 20.2256L124.089 22.6681L119.025 10.9915C118.787 10.4355 118.588 10.0185 118.429 9.74047C118.29 9.4426 118.131 9.22416 117.953 9.08515C117.774 8.94614 117.506 8.82699 117.148 8.7277V7.74473C117.605 7.76459 117.992 7.78444 118.31 7.8043C118.628 7.82416 118.965 7.84402 119.323 7.86388C119.7 7.86388 120.187 7.86388 120.782 7.86388C121.577 7.86388 122.202 7.85395 122.659 7.83409C123.136 7.81423 123.622 7.78444 124.119 7.74473V8.7277C123.682 8.78728 123.364 8.87664 123.165 8.99579C122.987 9.09508 122.897 9.25394 122.897 9.47238C122.897 9.67096 122.977 9.94898 123.136 10.3064L126.293 17.6639L125.548 17.6936L128.825 10.3064C129.004 9.90926 129.093 9.61139 129.093 9.41281C129.093 9.19437 128.984 9.03551 128.765 8.93621C128.547 8.83692 128.16 8.76742 127.604 8.7277V7.74473C128.001 7.78444 128.408 7.81423 128.825 7.83409C129.262 7.85395 129.699 7.86388 130.136 7.86388C130.652 7.86388 131.129 7.85395 131.565 7.83409C132.002 7.81423 132.419 7.78444 132.816 7.74473V8.7277C132.36 8.84685 132.012 9.0355 131.774 9.29366C131.555 9.53196 131.277 9.97877 130.94 10.6341L125.191 22.1617C124.754 23.0553 124.337 23.8596 123.94 24.5745C123.543 25.2894 123.136 25.905 122.719 26.4213C122.302 26.9376 121.835 27.3248 121.319 27.583C120.802 27.861 120.197 28 119.502 28C119.204 28 118.916 27.9801 118.638 27.9404C118.38 27.9206 118.112 27.8908 117.834 27.8511L118.489 23.7106Z" fill="#FAFAFA"/>
<path d="M114.806 3.90212V16.651C114.806 17.4652 114.816 18.1106 114.836 18.5872C114.856 19.0638 114.925 19.4212 115.045 19.6595C115.184 19.9177 115.372 20.0964 115.611 20.1957C115.869 20.2751 116.226 20.3645 116.683 20.4638V21.4468C115.988 21.407 115.452 21.3872 115.074 21.3872C114.717 21.3673 114.379 21.3574 114.062 21.3574C113.744 21.3375 113.287 21.3276 112.691 21.3276C112.116 21.3276 111.659 21.3375 111.321 21.3574C111.003 21.3574 110.656 21.3673 110.279 21.3872C109.921 21.3872 109.395 21.407 108.7 21.4468V20.4638C109.117 20.3645 109.455 20.2751 109.713 20.1957C109.971 20.1163 110.16 19.9673 110.279 19.7489C110.418 19.5106 110.497 19.1532 110.517 18.6766C110.557 18.2 110.577 17.5149 110.577 16.6212V5.09361C110.577 4.45815 110.557 3.96169 110.517 3.60425C110.497 3.2468 110.418 2.96879 110.279 2.77021C110.14 2.59148 109.951 2.47233 109.713 2.41276C109.474 2.33333 109.137 2.2539 108.7 2.17446V1.13191C109.752 1.03262 110.725 0.883686 111.619 0.685105C112.533 0.486524 113.386 0.258156 114.181 0L114.955 0.387234C114.876 0.883686 114.826 1.41985 114.806 1.99574C114.806 2.57163 114.806 3.20708 114.806 3.90212Z" fill="#FAFAFA"/>
<path d="M96.0207 11.3787V16.651C96.0207 17.4652 96.0306 18.1106 96.0505 18.5872C96.0703 19.0638 96.1398 19.4212 96.259 19.6595C96.398 19.9177 96.5866 20.0964 96.8249 20.1957C97.0831 20.2751 97.4405 20.3645 97.8973 20.4638V21.4468C97.2022 21.407 96.6661 21.3872 96.2888 21.3872C95.9313 21.3673 95.5937 21.3574 95.276 21.3574C94.9583 21.3375 94.5015 21.3276 93.9058 21.3276C93.3299 21.3276 92.8732 21.3375 92.5356 21.3574C92.2178 21.3574 91.8703 21.3673 91.493 21.3872C91.1356 21.3872 90.6093 21.407 89.9143 21.4468V20.4638C90.3313 20.3645 90.6689 20.2751 90.9271 20.1957C91.1852 20.1163 91.3739 19.9673 91.493 19.7489C91.632 19.5106 91.7115 19.1532 91.7313 18.6766C91.771 18.2 91.7909 17.5149 91.7909 16.6212V12.5702C91.7909 11.9347 91.771 11.4383 91.7313 11.0808C91.7115 10.7234 91.632 10.4454 91.493 10.2468C91.354 10.0681 91.1654 9.94892 90.9271 9.88934C90.6888 9.80991 90.3512 9.73048 89.9143 9.65104V8.60849C90.9668 8.5092 91.9398 8.36027 92.8334 8.16168C93.7469 7.9631 94.6008 7.73474 95.3951 7.47658L96.1696 7.86381C96.0902 8.36027 96.0405 8.89643 96.0207 9.47232C96.0207 10.0482 96.0207 10.6837 96.0207 11.3787ZM105.582 12.5404V16.651C105.582 17.4652 105.592 18.1106 105.612 18.5872C105.632 19.0638 105.702 19.4212 105.821 19.6595C105.96 19.9177 106.148 20.0964 106.387 20.1957C106.645 20.2751 107.002 20.3645 107.459 20.4638V21.4468C106.764 21.407 106.228 21.3872 105.85 21.3872C105.493 21.3673 105.155 21.3574 104.838 21.3574C104.52 21.3375 104.063 21.3276 103.467 21.3276C102.892 21.3276 102.435 21.3375 102.097 21.3574C101.78 21.3574 101.432 21.3673 101.055 21.3872C100.697 21.3872 100.171 21.407 99.476 21.4468V20.4638C99.893 20.3645 100.231 20.2751 100.489 20.1957C100.747 20.1163 100.936 19.9673 101.055 19.7489C101.194 19.5106 101.273 19.1532 101.293 18.6766C101.333 18.2 101.353 17.5149 101.353 16.6212V14.6255C101.353 13.712 101.253 12.9574 101.055 12.3617C100.876 11.7461 100.578 11.2893 100.161 10.9915C99.7639 10.6737 99.2278 10.5149 98.5526 10.5149C97.7583 10.5149 97.1129 10.6539 96.6164 10.9319C96.1398 11.19 95.6831 11.5078 95.2462 11.8851H94.5313C95.1072 11.1503 95.6831 10.4454 96.259 9.77019C96.8547 9.09502 97.51 8.53899 98.2249 8.10211C98.9398 7.66523 99.7838 7.44679 100.757 7.44679C101.591 7.44679 102.375 7.63544 103.11 8.01275C103.845 8.39005 104.441 8.95601 104.897 9.71062C105.354 10.4454 105.582 11.3886 105.582 12.5404Z" fill="#FAFAFA"/>
<path d="M80.5217 21.7446C78.9927 21.7446 77.6622 21.4765 76.5303 20.9404C75.4182 20.4042 74.5544 19.6297 73.9388 18.617C73.343 17.5844 73.0452 16.3432 73.0452 14.8936C73.0452 13.3447 73.3828 12.0142 74.0579 10.9021C74.753 9.79005 75.6664 8.93615 76.7983 8.34041C77.9303 7.74466 79.1714 7.44679 80.5217 7.44679C82.0707 7.44679 83.4012 7.71488 84.5132 8.25105C85.6253 8.78722 86.4792 9.57161 87.0749 10.6042C87.6905 11.617 87.9983 12.8482 87.9983 14.2978C87.9983 15.8468 87.6508 17.1773 86.9558 18.2893C86.2806 19.4014 85.3771 20.2553 84.2451 20.851C83.1132 21.4468 81.8721 21.7446 80.5217 21.7446ZM80.6111 20.4042C81.326 20.4042 81.892 20.1461 82.309 19.6297C82.726 19.1134 83.0139 18.4482 83.1728 17.634C83.3515 16.8198 83.4409 15.9659 83.4409 15.0723C83.4409 14.3773 83.4012 13.6624 83.3217 12.9276C83.2423 12.1929 83.0934 11.5177 82.8749 10.9021C82.6763 10.2666 82.3785 9.76026 81.9813 9.38296C81.604 8.9858 81.1175 8.78722 80.5217 8.78722C79.8069 8.78722 79.231 9.04537 78.7941 9.56168C78.3771 10.0581 78.0693 10.7135 77.8707 11.5276C77.692 12.3418 77.6026 13.1957 77.6026 14.0893C77.6026 14.7844 77.6423 15.5092 77.7217 16.2638C77.821 16.9985 77.9799 17.6837 78.1983 18.3191C78.4168 18.9347 78.7246 19.4411 79.1217 19.8383C79.5189 20.2156 80.0154 20.4042 80.6111 20.4042Z" fill="#FAFAFA"/>
<path d="M67.1123 5.62982C66.4371 5.62982 65.8613 5.39152 65.3847 4.91493C64.9081 4.43833 64.6698 3.86244 64.6698 3.18727C64.6698 2.49224 64.9081 1.91635 65.3847 1.45961C65.8613 0.983018 66.4371 0.74472 67.1123 0.74472C67.8074 0.74472 68.3832 0.983018 68.84 1.45961C69.3166 1.91635 69.5549 2.49224 69.5549 3.18727C69.5549 3.86244 69.3166 4.43833 68.84 4.91493C68.3832 5.39152 67.8074 5.62982 67.1123 5.62982ZM69.3464 11.3787V16.6511C69.3464 17.4653 69.3563 18.1106 69.3761 18.5872C69.396 19.0638 69.4655 19.4213 69.5847 19.6596C69.7237 19.9177 69.9123 20.0965 70.1506 20.1957C70.4088 20.2752 70.7662 20.3645 71.2229 20.4638V21.4468C70.5279 21.4071 69.9917 21.3872 69.6144 21.3872C69.257 21.3674 68.9194 21.3574 68.6017 21.3574C68.2839 21.3376 67.8272 21.3277 67.2315 21.3277C66.6556 21.3277 66.1988 21.3376 65.8613 21.3574C65.5435 21.3574 65.196 21.3674 64.8187 21.3872C64.4613 21.3872 63.935 21.4071 63.24 21.4468V20.4638C63.657 20.3645 63.9946 20.2752 64.2528 20.1957C64.5109 20.1163 64.6996 19.9674 64.8187 19.7489C64.9577 19.5106 65.0372 19.1532 65.057 18.6766C65.0967 18.2 65.1166 17.5149 65.1166 16.6213V12.5702C65.1166 11.9348 65.0967 11.4383 65.057 11.0809C65.0372 10.7234 64.9577 10.4454 64.8187 10.2468C64.6797 10.0681 64.491 9.94896 64.2528 9.88938C64.0145 9.80995 63.6769 9.73052 63.24 9.65108V8.60853C64.2925 8.50924 65.2655 8.36031 66.1591 8.16173C67.0527 7.96314 67.9066 7.73478 68.7208 7.47662L69.4953 7.86385C69.4159 8.36031 69.3662 8.89648 69.3464 9.47236C69.3464 10.0482 69.3464 10.6837 69.3464 11.3787Z" fill="#FAFAFA"/>
<path d="M54.6336 16.1149C53.8988 15.7773 53.2634 15.4298 52.7272 15.0723C52.191 14.7149 51.7839 14.2978 51.5059 13.8212C51.2279 13.3248 51.0889 12.7291 51.0889 12.034C51.0889 11.0808 51.3272 10.2666 51.8038 9.59147C52.3002 8.89643 52.9754 8.37019 53.8293 8.01275C54.7031 7.63544 55.7059 7.44679 56.8378 7.44679C57.5924 7.44679 58.347 7.53615 59.1017 7.71488C59.8563 7.87374 60.6208 8.12197 61.3953 8.45956L60.1144 11.6766H59.2804L58.0293 8.45956L59.3995 8.96594L59.7272 10.1872C59.3896 9.84962 58.9825 9.5319 58.5059 9.23402C58.0293 8.91629 57.4634 8.75743 56.808 8.75743C56.1329 8.75743 55.6563 8.92622 55.3783 9.26381C55.1201 9.58154 54.991 9.93899 54.991 10.3361C54.991 10.7929 55.13 11.1603 55.408 11.4383C55.6861 11.6964 56.0534 11.9347 56.5102 12.1532C56.9868 12.3716 57.513 12.6198 58.0889 12.8978C58.8435 13.2553 59.479 13.6127 59.9953 13.9702C60.5314 14.3276 60.9286 14.7446 61.1868 15.2212C61.4648 15.678 61.6038 16.2539 61.6038 16.9489C61.6038 17.9418 61.3258 18.8056 60.7697 19.5404C60.2137 20.2553 59.4591 20.8014 58.5059 21.1787C57.5726 21.556 56.5201 21.7446 55.3485 21.7446C54.5939 21.7446 53.8095 21.6553 52.9953 21.4766C52.201 21.3177 51.3967 21.0595 50.5825 20.7021L51.8932 17.4255H52.7272L53.9783 20.7021L52.6378 20.1957L52.3102 18.9744C52.8861 19.5305 53.3825 19.9177 53.7995 20.1361C54.2364 20.3347 54.7627 20.434 55.3783 20.434C56.3116 20.434 56.9371 20.2453 57.2548 19.868C57.5726 19.4907 57.7314 19.1035 57.7314 18.7063C57.7314 18.2297 57.5924 17.8524 57.3144 17.5744C57.0563 17.2964 56.6889 17.0482 56.2123 16.8298C55.7556 16.6113 55.2293 16.373 54.6336 16.1149Z" fill="#FAFAFA"/>
<path d="M42.1253 16.1149C41.3905 15.7773 40.7551 15.4298 40.2189 15.0723C39.6827 14.7149 39.2756 14.2978 38.9976 13.8212C38.7196 13.3248 38.5806 12.7291 38.5806 12.034C38.5806 11.0808 38.8189 10.2666 39.2955 9.59147C39.7919 8.89643 40.4671 8.37019 41.321 8.01275C42.1948 7.63544 43.1976 7.44679 44.3295 7.44679C45.0841 7.44679 45.8387 7.53615 46.5933 7.71488C47.348 7.87374 48.1125 8.12197 48.887 8.45956L47.6061 11.6766H46.7721L45.521 8.45956L46.8912 8.96594L47.2189 10.1872C46.8813 9.84962 46.4742 9.5319 45.9976 9.23402C45.521 8.91629 44.9551 8.75743 44.2997 8.75743C43.6246 8.75743 43.148 8.92622 42.87 9.26381C42.6118 9.58154 42.4827 9.93899 42.4827 10.3361C42.4827 10.7929 42.6217 11.1603 42.8997 11.4383C43.1778 11.6964 43.5451 11.9347 44.0019 12.1532C44.4785 12.3716 45.0047 12.6198 45.5806 12.8978C46.3352 13.2553 46.9707 13.6127 47.487 13.9702C48.0231 14.3276 48.4203 14.7446 48.6785 15.2212C48.9565 15.678 49.0955 16.2539 49.0955 16.9489C49.0955 17.9418 48.8175 18.8056 48.2614 19.5404C47.7054 20.2553 46.9508 20.8014 45.9976 21.1787C45.0643 21.556 44.0118 21.7446 42.8402 21.7446C42.0856 21.7446 41.3012 21.6553 40.487 21.4766C39.6927 21.3177 38.8884 21.0595 38.0742 20.7021L39.3849 17.4255H40.2189L41.47 20.7021L40.1295 20.1957L39.8019 18.9744C40.3778 19.5305 40.8742 19.9177 41.2912 20.1361C41.7281 20.3347 42.2544 20.434 42.87 20.434C43.8033 20.434 44.4288 20.2453 44.7465 19.868C45.0643 19.4907 45.2231 19.1035 45.2231 18.7063C45.2231 18.2297 45.0841 17.8524 44.8061 17.5744C44.548 17.2964 44.1806 17.0482 43.704 16.8298C43.2473 16.6113 42.721 16.373 42.1253 16.1149Z" fill="#FAFAFA"/>
<path d="M32.409 5.62982C31.7338 5.62982 31.1579 5.39152 30.6813 4.91493C30.2047 4.43833 29.9664 3.86244 29.9664 3.18727C29.9664 2.49224 30.2047 1.91635 30.6813 1.45961C31.1579 0.983018 31.7338 0.74472 32.409 0.74472C33.104 0.74472 33.6799 0.983018 34.1366 1.45961C34.6132 1.91635 34.8515 2.49224 34.8515 3.18727C34.8515 3.86244 34.6132 4.43833 34.1366 4.91493C33.6799 5.39152 33.104 5.62982 32.409 5.62982ZM34.643 11.3787V16.6511C34.643 17.4653 34.6529 18.1106 34.6728 18.5872C34.6926 19.0638 34.7621 19.4213 34.8813 19.6596C35.0203 19.9177 35.2089 20.0965 35.4472 20.1957C35.7054 20.2752 36.0628 20.3645 36.5196 20.4638V21.4468C35.8245 21.4071 35.2884 21.3872 34.9111 21.3872C34.5536 21.3674 34.216 21.3574 33.8983 21.3574C33.5806 21.3376 33.1238 21.3277 32.5281 21.3277C31.9522 21.3277 31.4955 21.3376 31.1579 21.3574C30.8402 21.3574 30.4926 21.3674 30.1153 21.3872C29.7579 21.3872 29.2317 21.4071 28.5366 21.4468V20.4638C28.9536 20.3645 29.2912 20.2752 29.5494 20.1957C29.8075 20.1163 29.9962 19.9674 30.1153 19.7489C30.2543 19.5106 30.3338 19.1532 30.3536 18.6766C30.3934 18.2 30.4132 17.5149 30.4132 16.6213V12.5702C30.4132 11.9348 30.3934 11.4383 30.3536 11.0809C30.3338 10.7234 30.2543 10.4454 30.1153 10.2468C29.9763 10.0681 29.7877 9.94896 29.5494 9.88938C29.3111 9.80995 28.9735 9.73052 28.5366 9.65108V8.60853C29.5891 8.50924 30.5622 8.36031 31.4558 8.16173C32.3494 7.96314 33.2033 7.73478 34.0175 7.47662L34.7919 7.86385C34.7125 8.36031 34.6628 8.89648 34.643 9.47236C34.643 10.0482 34.643 10.6837 34.643 11.3787Z" fill="#FAFAFA"/>
<path d="M26.7489 20.3149V21.4468C25.9546 21.4071 25.329 21.3872 24.8723 21.3872C24.4156 21.3674 23.9985 21.3574 23.6212 21.3574C23.2638 21.3376 22.7971 21.3276 22.2212 21.3276C21.7446 21.3276 21.3276 21.3376 20.9702 21.3574C20.6326 21.3574 20.2354 21.3674 19.7787 21.3872C19.3418 21.3872 18.7262 21.4071 17.9319 21.4468V20.3149C18.7262 20.1957 19.2822 20.0666 19.6 19.9276C19.9375 19.7886 20.1262 19.5106 20.1659 19.0936C20.2255 18.6766 20.2156 18.0014 20.1361 17.0681L19.2723 5.00427H19.9574L12.8085 20.3744H11.3787L4.55744 5.24257L5.48084 5.1532L4.25957 17.9319C4.19999 18.5475 4.19999 19.0042 4.25957 19.3021C4.339 19.6 4.56737 19.8184 4.94467 19.9574C5.32197 20.0766 5.95743 20.1957 6.85105 20.3149V21.4468C6.25531 21.4269 5.74892 21.4071 5.3319 21.3872C4.91488 21.3674 4.51772 21.3574 4.14042 21.3574C3.78297 21.3376 3.39574 21.3276 2.97872 21.3276C2.54184 21.3276 2.0851 21.3376 1.60851 21.3574C1.13191 21.3773 0.595743 21.4071 0 21.4468V20.3149C0.575885 20.2156 0.982977 20.1362 1.22127 20.0766C1.47943 20.017 1.66808 19.878 1.78723 19.6596C1.92624 19.4213 2.0156 19.0539 2.05531 18.5574C2.11489 18.061 2.18439 17.3659 2.26382 16.4723L3.33616 6.16597C3.43545 5.27235 3.47517 4.58725 3.45531 4.11066C3.43545 3.6142 3.34609 3.25676 3.18723 3.03832C3.02836 2.81988 2.78014 2.67094 2.44255 2.59151C2.12482 2.49222 1.69787 2.40286 1.1617 2.32342V1.19151H7.6553L14.0298 14.6851L13.3149 14.7149L19.4808 1.19151H25.8553V2.32342C25.0808 2.40286 24.5248 2.53194 24.1872 2.71066C23.8695 2.88938 23.6808 3.21704 23.6212 3.69363C23.5815 4.17023 23.6014 4.90498 23.6808 5.89789L24.5744 16.5021C24.6737 17.5943 24.7631 18.3986 24.8425 18.9149C24.9418 19.4113 25.1304 19.7489 25.4085 19.9276C25.6865 20.0865 26.1333 20.2156 26.7489 20.3149Z" fill="#FAFAFA"/>
<circle cx="138.734" cy="17.1028" r="4.34396" fill="#6E20FF"/>
</svg>
