<svg viewBox="0 0 20 20" fill="none" xmlns="http://www.w3.org/2000/svg">
<path d="M17.7778 13.3333H15.9172C15.3208 13.3333 15.2037 13.3405 15.1056 13.364C14.9924 13.3912 14.884 13.4361 14.7844 13.4969L14.7844 13.497C14.6983 13.5497 14.6104 13.6276 14.1887 14.0493L14.0493 14.1887C13.7024 14.5356 13.4059 14.8422 13.0436 15.0643C13.0434 15.0644 13.0432 15.0645 13.0431 15.0646C12.745 15.2471 12.42 15.3817 12.08 15.4633L12.0801 15.4634C11.6666 15.5627 11.2401 15.5555 10.7494 15.5555H9.25055C8.75991 15.5555 8.33337 15.5627 7.91989 15.4634C7.58002 15.3817 7.25496 15.2471 6.9568 15.0645L6.95651 15.0643C6.59415 14.8422 6.29769 14.5356 5.95094 14.1889L5.81126 14.0493C5.38991 13.628 5.3018 13.5499 5.21582 13.4972L5.19707 13.4859C5.10275 13.4307 5.00078 13.3896 4.89443 13.3641L4.89427 13.364C4.79625 13.3405 4.67924 13.3333 4.08278 13.3333H2.2222V15.3333C2.2222 15.9739 2.22308 16.3876 2.2488 16.7024C2.27346 17.0043 2.31532 17.1162 2.3433 17.1711C2.44651 17.3737 2.60928 17.5395 2.80931 17.6464L2.82878 17.6566L2.82891 17.6567C2.88384 17.6847 2.99575 17.7265 3.29759 17.7512C3.61241 17.7769 4.02606 17.7778 4.66667 17.7778H15.3333C15.9739 17.7778 16.3876 17.7769 16.7024 17.7512C17.0043 17.7265 17.1162 17.6846 17.1711 17.6567L17.1712 17.6566C17.3802 17.5501 17.5501 17.3802 17.6566 17.1712L17.6567 17.1711C17.6846 17.1162 17.7265 17.0043 17.7512 16.7024C17.7769 16.3876 17.7778 15.9739 17.7778 15.3333V13.3333ZM17.7778 4.66667C17.7778 4.02605 17.7769 3.61241 17.7512 3.29759C17.7265 2.99575 17.6847 2.88384 17.6567 2.82891L17.6566 2.82878C17.5502 2.61983 17.3802 2.44987 17.1711 2.34333C17.1162 2.31535 17.0043 2.27346 16.7024 2.2488C16.3876 2.22308 15.9739 2.2222 15.3333 2.2222H4.66667C4.02606 2.2222 3.61241 2.22308 3.29759 2.2488C2.99574 2.27346 2.88384 2.31534 2.82891 2.34333C2.61985 2.44984 2.44984 2.61982 2.34333 2.82888C2.31534 2.88381 2.27346 2.99574 2.2488 3.29759C2.22308 3.61241 2.2222 4.02606 2.2222 4.66667V11.1111H4.08278C4.57339 11.1111 4.99994 11.1039 5.41341 11.2033C5.74281 11.2824 6.0581 11.4112 6.3485 11.5852L6.37653 11.6021L6.37679 11.6023C6.73915 11.8244 7.0356 12.131 7.38236 12.4777L7.52204 12.6173C7.94344 13.0387 8.0315 13.1168 8.11748 13.1695L8.13623 13.1807C8.23053 13.236 8.33258 13.2771 8.43893 13.3026C8.53701 13.3262 8.65409 13.3333 9.25055 13.3333H10.7494C11.3459 13.3333 11.4629 13.3262 11.561 13.3026C11.6742 13.2754 11.7826 13.2305 11.8822 13.1697C11.9683 13.1169 12.0563 13.039 12.478 12.6173L12.6173 12.478C12.9643 12.1311 13.2607 11.8245 13.6231 11.6023C13.6232 11.6022 13.6234 11.6021 13.6236 11.6021C13.9217 11.4195 14.2466 11.2849 14.5866 11.2033L14.6254 11.1943C15.0268 11.1044 15.4419 11.1111 15.9172 11.1111H17.7778V4.66667ZM20 15.3333C20 15.9373 20.0008 16.4571 19.966 16.8834C19.9301 17.3226 19.8509 17.7596 19.6367 18.18L19.6366 18.18C19.3171 18.8071 18.8071 19.3171 18.18 19.6366L18.18 19.6367C17.7596 19.8509 17.3226 19.9301 16.8834 19.966C16.4571 20.0008 15.9373 20 15.3333 20H4.66667C4.06273 20 3.54294 20.0008 3.11664 19.966C2.67736 19.9301 2.24042 19.8509 1.81999 19.6367C1.19272 19.3171 0.682869 18.8071 0.363348 18.18C0.149118 17.7596 0.0698429 17.3226 0.0339538 16.8834C-0.000876033 16.4571 2.01288e-06 15.9373 2.02452e-06 15.3333V4.66667C2.02452e-06 4.06273 -0.000876093 3.54294 0.0339538 3.11664C0.0698433 2.67737 0.149105 2.24047 0.363316 1.82005C0.682889 1.19282 1.19282 0.682856 1.82005 0.363283C2.24047 0.149073 2.67737 0.0698433 3.11664 0.0339538C3.54294 -0.000876093 4.06273 2.02452e-06 4.66667 2.02452e-06H15.3333C15.9373 2.01288e-06 16.4571 -0.000876033 16.8834 0.0339538C17.3226 0.0698432 17.7596 0.149082 18.18 0.363316L18.18 0.363348C18.8071 0.682871 19.3171 1.19271 19.6367 1.81999L19.6563 1.85947C19.8558 2.26774 19.9312 2.69106 19.966 3.1166C20.0008 3.54291 20 4.06272 20 4.66667V15.3333Z"/>
</svg>
