<svg viewBox="0 0 20 20" fill="none" xmlns="http://www.w3.org/2000/svg">
<path d="M17.5 0C18.8807 0 20 1.11929 20 2.5V17.5C20 18.8807 18.8807 20 17.5 20H2.5C1.11929 20 0 18.8807 0 17.5V2.5C6.44267e-08 1.11929 1.11929 6.44256e-08 2.5 0H17.5ZM2.5 1.66699C2.03977 1.66699 1.66699 2.03977 1.66699 2.5V17.5C1.66699 17.9602 2.03977 18.333 2.5 18.333H17.5C17.9602 18.333 18.333 17.9602 18.333 17.5V2.5C18.333 2.03977 17.9602 1.66699 17.5 1.66699H2.5ZM7.46582 11.3555C7.7913 11.03 8.31909 11.03 8.64453 11.3555C8.9698 11.6808 8.96972 12.2078 8.64453 12.5332L6.42285 14.7559C6.09746 15.0813 5.56958 15.0812 5.24414 14.7559L4.13281 13.6445C3.80754 13.3191 3.80761 12.7922 4.13281 12.4668C4.45825 12.1414 4.98609 12.1414 5.31152 12.4668L5.83301 12.9883L7.46582 11.3555ZM15.2773 12.2227C15.7377 12.2227 16.1113 12.5954 16.1113 13.0557C16.1113 13.5158 15.7376 13.8887 15.2773 13.8887H11.3887C10.9285 13.8885 10.5557 13.5157 10.5557 13.0557C10.5557 12.5956 10.9285 12.2228 11.3887 12.2227H15.2773ZM7.46582 5.24414C7.7913 4.91871 8.31909 4.91871 8.64453 5.24414C8.96996 5.56958 8.96997 6.09742 8.64453 6.42285L6.42285 8.64453C6.09742 8.96997 5.56958 8.96996 5.24414 8.64453L4.13281 7.53418C3.80742 7.20878 3.80749 6.68091 4.13281 6.35547C4.45825 6.03004 4.98609 6.03004 5.31152 6.35547L5.83301 6.87695L7.46582 5.24414ZM15.2783 6.11133C15.7383 6.11156 16.1113 6.4843 16.1113 6.94434C16.1113 7.40443 15.7383 7.77711 15.2783 7.77734H11.3887C10.9286 7.77717 10.5557 7.40446 10.5557 6.94434C10.5557 6.48426 10.9286 6.1115 11.3887 6.11133H15.2783Z"/>
</svg>
