<svg viewBox="0 0 18 18" fill="none" xmlns="http://www.w3.org/2000/svg">
<path d="M13.5489 7.64486C13.5487 4.38474 10.905 1.74195 7.64486 1.74195C4.38486 1.74216 1.74216 4.38486 1.74195 7.64486C1.74195 10.905 4.38474 13.5487 7.64486 13.5489C10.9051 13.5489 13.5489 10.9051 13.5489 7.64486ZM15.2908 7.64486C15.2908 9.44501 14.6659 11.0984 13.6249 12.4046L17.7439 16.5123C18.0844 16.8518 18.0856 17.4032 17.7461 17.7439C17.4066 18.0844 16.8552 18.0856 16.5145 17.7461L12.391 13.6351C11.0868 14.6698 9.4389 15.2908 7.64486 15.2908C3.42268 15.2906 0 11.867 0 7.64486C0.000204391 3.42281 3.42281 0.000204387 7.64486 0C11.867 0 15.2906 3.42268 15.2908 7.64486Z" fill="#171717" fill-opacity="0.6"/>
</svg>
