<svg viewBox="0 0 25 20" fill="none" xmlns="http://www.w3.org/2000/svg">
<path fill-rule="evenodd" clip-rule="evenodd" d="M7.8625 20C17.2962 20 22.4562 12.3044 22.4562 5.63153C22.4562 5.41246 22.4562 5.19505 22.4412 4.97845C23.445 4.26464 24.3113 3.37836 25 2.36428C24.065 2.77287 23.0712 3.04082 22.055 3.15896C23.125 2.52762 23.9263 1.53574 24.31 0.365349C23.3025 0.953619 22.2012 1.3688 21.0525 1.59156C19.11 -0.441553 15.8612 -0.540058 13.795 1.37244C12.4637 2.60559 11.8975 4.44421 12.3112 6.19794C8.1875 5.99365 4.345 4.07626 1.74 0.921997C0.37875 3.22954 1.075 6.18044 3.32875 7.6622C2.5125 7.63881 1.71375 7.42244 1 7.03108V7.09517C1.00125 9.49873 2.7225 11.5683 5.115 12.0446C4.36 12.2476 3.5675 12.2771 2.8 12.1306C3.47125 14.1884 5.3975 15.5978 7.59125 15.6384C5.775 17.0438 3.53125 17.807 1.22125 17.8045C0.81375 17.8033 0.40625 17.7799 0 17.7319C2.34625 19.2137 5.075 20 7.8625 19.9963" fill="#FAFAFA"/>
</svg>
