<svg width="39" height="48" viewBox="0 0 39 48" fill="none" xmlns="http://www.w3.org/2000/svg">
<path d="M19.2988 27.7109C29.9574 27.7109 38.5986 36.3202 38.5986 46.9404C38.5986 47.5253 38.1221 47.999 37.5352 47.999H1.06348C0.476477 47.999 4.17973e-05 47.5253 0 46.9404C1.35381e-05 36.3204 8.64048 27.7111 19.2988 27.7109ZM19.2988 29.8291C10.1716 29.8293 2.70732 36.9241 2.1582 45.8809H36.4404C35.8913 36.924 28.4263 29.8291 19.2988 29.8291ZM19.2988 0C25.5844 0 30.6804 5.20569 30.6807 11.6279C30.6807 18.0504 25.5845 23.2568 19.2988 23.2568C13.0132 23.2566 7.91797 18.0502 7.91797 11.6279C7.91822 5.20586 13.0134 0.000252107 19.2988 0ZM19.2988 2.15234C14.177 2.1526 10.0247 6.39477 10.0244 11.6279C10.0244 16.8613 14.1768 21.1042 19.2988 21.1045C24.4209 21.1045 28.5742 16.8615 28.5742 11.6279C28.574 6.39462 24.4208 2.15234 19.2988 2.15234Z" fill="#FAFAFA" fill-opacity="0.6"/>
</svg>
