<svg width="51" height="48" viewBox="0 0 51 48" fill="none" xmlns="http://www.w3.org/2000/svg">
<path d="M42.2119 0C44.0678 0.000152719 45.5723 1.50542 45.5723 3.36133V44.6396C45.5723 45.177 45.446 45.6853 45.2217 46.1357H49.4961C50.011 46.1358 50.4287 46.5534 50.4287 47.0684C50.4286 47.5832 50.011 48.001 49.4961 48.001H0.932617C0.417749 48.0009 8.02669e-05 47.5832 0 47.0684C0 46.5534 0.417699 46.1358 0.932617 46.1357H5.20801C4.98364 45.6852 4.85645 45.1772 4.85645 44.6396V25.2148C4.85646 23.359 6.361 21.8547 8.2168 21.8545H17.9297C18.4672 21.8545 18.9752 21.9807 19.4258 22.2051V3.36133C19.4258 1.50537 20.9302 5.85546e-05 22.7861 0H42.2119ZM8.2168 23.7188C7.39092 23.719 6.72169 24.3889 6.72168 25.2148V44.6396C6.72168 45.4656 7.39091 46.1355 8.2168 46.1357H17.9297C18.7558 46.1357 19.4258 45.4657 19.4258 44.6396V25.2148C19.4258 24.3888 18.7558 23.7188 17.9297 23.7188H8.2168ZM22.7861 1.86523C21.9601 1.86529 21.2901 2.53529 21.29 3.36133V44.6396C21.29 45.4657 21.9601 46.1357 22.7861 46.1357H42.2119C43.0379 46.1356 43.707 45.4656 43.707 44.6396V3.36133C43.707 2.53535 43.0379 1.86539 42.2119 1.86523H22.7861ZM15.502 34.0049C16.0167 34.0051 16.4336 34.4227 16.4336 34.9375C16.4335 35.4523 16.0167 35.8699 15.502 35.8701H10.6455C10.1306 35.8701 9.71295 35.4524 9.71289 34.9375C9.71289 34.4225 10.1305 34.0049 10.6455 34.0049H15.502ZM34.9268 34.0049C35.4417 34.0049 35.8594 34.4225 35.8594 34.9375C35.8593 35.4524 35.4417 35.8701 34.9268 35.8701H30.0703C29.5555 35.87 29.1378 35.4523 29.1377 34.9375C29.1377 34.4226 29.5555 34.005 30.0703 34.0049H34.9268ZM34.9268 23.0781C35.4417 23.0781 35.8594 23.4958 35.8594 24.0107C35.8593 24.5256 35.4416 24.9433 34.9268 24.9434H30.0703C29.5555 24.9432 29.1378 24.5255 29.1377 24.0107C29.1377 23.4959 29.5555 23.0783 30.0703 23.0781H34.9268ZM34.9268 12.1514C35.4417 12.1514 35.8594 12.569 35.8594 13.084C35.8592 13.5988 35.4416 14.0166 34.9268 14.0166H30.0703C29.5555 14.0165 29.1378 13.5988 29.1377 13.084C29.1377 12.5691 29.5555 12.1515 30.0703 12.1514H34.9268Z" fill="#FAFAFA" fill-opacity="0.6"/>
</svg>
