<svg width="37" height="48" viewBox="0 0 37 48" fill="none" xmlns="http://www.w3.org/2000/svg">
<path d="M8.66156 16.5605C9.85984 17.2644 11.2061 17.6161 12.5497 17.6161C13.893 17.6161 15.2382 17.2641 16.4364 16.5606C19.2868 14.8866 20.8334 11.575 20.6784 7.47508C20.5935 5.23069 19.7011 3.51079 18.3999 2.28775C17.0308 0.985914 15.1386 0.190558 13.0039 0.0332995C12.8733 0.023685 12.4679 -0.0169835 12.1379 0.00799225C8.48213 0.280184 4.60613 2.67874 4.42078 7.46955C4.42067 7.47232 4.4143 7.47287 4.4143 7.47563C4.4143 7.47663 4.4143 7.47762 4.4143 7.47862C4.30262 11.5766 5.81213 14.8869 8.66156 16.5605ZM12.5531 2.19425C13.7007 2.24034 15.0067 2.56569 16.0989 3.28346C16.6396 3.64097 17.1183 4.08832 17.5 4.62851C14.3647 6.02394 10.4691 6.92826 6.69069 7.13636C7.03076 3.87084 9.82518 2.30289 12.5531 2.19425ZM18.3489 6.67409C18.4005 6.95479 18.4332 7.24919 18.4448 7.55763C18.5683 10.8237 17.4207 13.4126 15.2959 14.6604C13.6038 15.6541 11.5017 15.6541 9.80965 14.6604C8.0902 13.6505 7.01064 11.7623 6.72691 9.34782C10.769 9.13431 14.9559 8.16965 18.3489 6.67409ZM17.3881 23.393L15.3414 25.9259C14.956 26.4027 14.2525 26.4804 13.7702 26.0995C13.2878 25.7185 13.2091 25.0231 13.5945 24.5462L15.2664 22.4774C13.5895 22.0049 11.6885 21.9757 9.89461 22.4662L11.5758 24.5461C11.9612 25.0229 11.8827 25.7183 11.4003 26.0994C10.918 26.4803 10.2146 26.4027 9.8291 25.9259L7.76109 23.3674C6.20161 24.313 5.17436 25.7328 4.85185 27.4538L2.46199 40.2081L13.6087 40.2079C14.226 40.2079 14.7266 40.7027 14.7266 41.313C14.7266 41.9234 14.2262 42.4181 13.6087 42.4181L1.11793 42.4184C0.785805 42.4184 0.470892 42.2724 0.25849 42.02C0.0460878 41.7676 -0.0417796 41.4348 0.018699 41.112L2.65315 27.0512C3.26174 23.8035 5.64903 21.3656 9.20296 20.3625C11.1247 19.8201 13.2692 19.761 15.2412 20.1962C17.3586 20.6636 19.1623 21.6526 20.457 23.0561C20.8731 23.5071 20.8406 24.206 20.3844 24.6173C19.9281 25.0286 19.2212 24.9965 18.8051 24.5455C18.399 24.1053 17.9206 23.7197 17.3881 23.393ZM24.8746 45.127C24.8746 45.7374 24.3742 46.2321 23.7567 46.2321H18.8288C18.2114 46.2321 17.7176 45.7209 17.7176 45.1105V28.9518C17.7176 28.3414 18.2114 27.8871 18.8288 27.8871H31.4246C32.042 27.8871 32.5857 28.3414 32.5857 28.9518V30.3427C32.5857 30.9531 32.0852 31.4478 31.4678 31.4478C30.8504 31.4478 30.3499 30.9531 30.3499 30.3427V30.0974H19.9534V44.0219H23.7567C24.3742 44.0219 24.8746 44.5167 24.8746 45.127ZM31.4246 39.7225C34.6031 39.7225 37 38.2975 37 36.4077C37 34.5177 34.6031 33.0926 31.4246 33.0926C28.2464 33.0926 25.8496 34.5177 25.8496 36.4077C25.8496 38.2975 28.2462 39.7225 31.4246 39.7225ZM28.7741 35.8328C29.4534 35.496 30.4195 35.3028 31.4246 35.3028C32.4298 35.3028 33.396 35.496 34.0753 35.8328C34.6444 36.115 34.7642 36.3693 34.7642 36.4077C34.7642 36.4462 34.6445 36.7002 34.0754 36.9824C33.396 37.3191 32.4298 37.5123 31.4246 37.5123C30.4195 37.5123 29.4534 37.3191 28.7741 36.9824C28.2052 36.7002 28.0855 36.4461 28.0855 36.4077C28.0855 36.3694 28.2051 36.115 28.7741 35.8328ZM36.3134 41.4875C36.581 42.0376 36.3468 42.698 35.7903 42.9624C34.5708 43.542 33.0204 43.8613 31.4244 43.8613C29.8288 43.8613 28.2784 43.542 27.059 42.9624C26.5025 42.6978 26.2684 42.0375 26.536 41.4875C26.8035 40.9374 27.4715 40.706 28.0279 40.9704C28.9512 41.4093 30.1574 41.651 31.4244 41.651C32.6917 41.651 33.8981 41.4093 34.8214 40.9704C35.3778 40.7059 36.046 40.9375 36.3134 41.4875ZM36.3134 45.6263C36.581 46.1764 36.3468 46.8368 35.7903 47.1012C34.571 47.6808 33.0205 48 31.4244 48C29.8286 48 28.2783 47.6808 27.059 47.1012C26.5025 46.8366 26.2684 46.1763 26.536 45.6263C26.8035 45.0762 27.4715 44.8448 28.0279 45.1092C28.951 45.5481 30.1572 45.7896 31.4244 45.7896C32.6919 45.7896 33.8983 45.548 34.8214 45.1092C35.3778 44.8448 36.046 45.0762 36.3134 45.6263Z" fill="#FAFAFA" fill-opacity="0.6"/>
</svg>
